<?xml version="1.0" encoding="UTF-8" standalone="no"?>
<!-- Created with Inkscape (http://www.inkscape.org/) -->

<svg
   width="135.56133mm"
   height="118.21594mm"
   viewBox="0 0 135.56133 118.21594"
   version="1.1"
   id="svg1"
   inkscape:version="1.4.2 (f4327f4, 2025-05-13)"
   sodipodi:docname="id_broker_wh.svg"
   xmlns:inkscape="http://www.inkscape.org/namespaces/inkscape"
   xmlns:sodipodi="http://sodipodi.sourceforge.net/DTD/sodipodi-0.dtd"
   xmlns="http://www.w3.org/2000/svg"
   xmlns:svg="http://www.w3.org/2000/svg">
  <sodipodi:namedview
     id="namedview1"
     pagecolor="#ffffff"
     bordercolor="#000000"
     borderopacity="0.25"
     inkscape:showpageshadow="2"
     inkscape:pageopacity="0.0"
     inkscape:pagecheckerboard="0"
     inkscape:deskcolor="#d1d1d1"
     inkscape:document-units="mm"
     inkscape:zoom="0.73851712"
     inkscape:cx="286.3847"
     inkscape:cy="331.06883"
     inkscape:window-width="1920"
     inkscape:window-height="1009"
     inkscape:window-x="-8"
     inkscape:window-y="-8"
     inkscape:window-maximized="1"
     inkscape:current-layer="layer1" />
  <defs
     id="defs1" />
  <g
     inkscape:label="Layer 1"
     inkscape:groupmode="layer"
     id="layer1"
     transform="translate(-29.461464,-60.951047)">
    <path
       style="fill:#ffffff;stroke-width:0.264583"
       d="m 40.150495,178.80864 c -4.660979,-1.28551 -8.459885,-4.83058 -10.080103,-9.40655 l -0.608928,-1.7198 v -39.02604 c 0,-37.058083 0.02442,-39.106093 0.484031,-40.613541 1.484323,-4.868209 5.849705,-9.09308 10.503535,-10.165447 0.752015,-0.173286 8.102103,-0.275016 20.167121,-0.279125 l 18.983859,-0.0065 v 7.672916 7.672917 h 17.59479 17.59479 v -7.672917 -7.672916 h 18.7493 c 11.57432,0 19.29469,0.102788 20.17448,0.268602 3.32611,0.626875 7.1206,3.205903 8.97999,6.103504 0.47242,0.736192 1.16849,2.133719 1.54685,3.10561 l 0.68792,1.767075 0.0765,38.496872 c 0.0537,26.99825 -0.01,39.01056 -0.21319,40.21667 -0.15931,0.94589 -0.75342,2.68293 -1.32025,3.8601 -1.74397,3.62195 -5.29381,6.43345 -9.3221,7.38322 -1.43422,0.33815 -9.10783,0.38788 -57.21886,0.37078 -44.024904,-0.0156 -55.815253,-0.0895 -56.779715,-0.35546 z M 87.15158,158.58601 c 1.30489,-0.59274 2.39,-1.83275 2.75553,-3.14891 0.17868,-0.64335 0.27379,-9.28155 0.27475,-24.9533 l 0.002,-23.96932 -0.61585,-1.1661 c -0.40452,-0.76593 -1.0557,-1.43847 -1.8976,-1.95984 l -1.28173,-0.79375 H 67.71439 49.04063 l -1.124183,0.60054 c -0.618302,0.3303 -1.451739,1.09546 -1.852083,1.70037 l -0.7279,1.09984 -0.07885,24.22879 c -0.0544,16.71417 0.0093,24.53283 0.205486,25.20906 0.383151,1.32091 1.476147,2.56361 2.772838,3.15262 1.004549,0.4563 2.18245,0.4857 19.457821,0.4857 17.275375,0 18.453275,-0.0294 19.457825,-0.4857 z m -36.598221,-9.62299 c 0.148651,-3.17716 0.736968,-4.70933 2.47668,-6.45008 2.978205,-2.97998 10.426737,-4.75274 17.248248,-4.10512 7.739143,0.73475 12.487783,3.15298 13.887093,7.07196 0.31607,0.88522 0.46391,2.08185 0.46302,3.74782 l -0.001,2.4474 H 67.526782 50.426475 Z m 13.523238,-16.30564 c -8.922914,-3.30919 -9.505239,-15.45235 -0.943052,-19.66529 1.647968,-0.81087 1.95948,-0.87225 4.423285,-0.87163 2.425409,5.3e-4 2.800533,0.0717 4.41778,0.83728 3.66146,1.73326 5.92715,4.96339 6.22272,8.87152 0.34392,4.54745 -2.01698,8.53706 -6.19147,10.46275 -2.075087,0.95723 -5.862751,1.13176 -7.929263,0.36537 z M 148.65625,151.675 V 148.5 H 126.82813 105 v 3.175 3.175 h 21.82813 21.82812 z m 0,-14.68438 v -3.0427 H 126.82813 105 v 3.0427 3.04271 h 21.82813 21.82812 z m 0,-14.55208 v -3.04271 H 126.82813 105 v 3.04271 3.04271 h 21.82813 21.82812 z m -0.26458,-18.25625 V 100.875 h -21.56354 -21.56354 v 3.1309 c 0,1.722 0.0794,3.21028 0.17639,3.30729 0.097,0.097 9.8006,0.17639 21.56354,0.17639 h 21.38715 z m -63.5,-24.153783 c 0,-10.808161 0.25595,-11.932931 3.47925,-15.289665 2.71373,-2.826073 5.56607,-3.946311 9.59893,-3.769926 2.11629,0.09256 2.67391,0.227115 4.46381,1.077132 3.49702,1.660728 5.8075,4.376798 6.90673,8.119163 0.34748,1.182973 0.42211,2.925707 0.42211,9.855729 v 8.418644 H 97.32709 84.89167 Z m 15.26159,0.714901 c 4.4394,-2.149078 4.72406,-8.599831 0.49487,-11.214536 -1.14643,-0.708785 -1.52783,-0.800746 -3.32104,-0.800746 -1.79321,0 -2.17462,0.09196 -3.32105,0.800746 -4.2338,2.617554 -3.94874,9.054568 0.49255,11.122398 1.78986,0.833347 4.04754,0.870135 5.65467,0.09214 z"
       id="path1" />
  </g>
</svg>
